<svg version="1.1" id="Layer_1" xmlns="http://www.w3.org/2000/svg" xmlns:xlink="http://www.w3.org/1999/xlink" x="0px" y="0px"
	 width="100%" viewBox="0 0 225 225" enable-background="new 0 0 225 225" xml:space="preserve">
<path fill="#FEFEFE" opacity="1.000000" stroke="none" 
	d="
M226.000000,85.000000 
	C226.000000,131.166672 225.963608,176.833420 226.083420,222.499786 
	C226.091232,225.482910 225.482254,226.086517 222.499878,226.082199 
	C149.833359,225.976944 77.166634,225.976929 4.500119,226.082199 
	C1.517747,226.086517 0.913467,225.482254 0.917787,222.499878 
	C1.023051,149.833359 1.023051,77.166634 0.917787,4.500119 
	C0.913467,1.517747 1.517747,0.913467 4.500119,0.917788 
	C77.166634,1.023048 149.833359,1.023048 222.499878,0.917788 
	C225.482254,0.913467 226.101822,1.515558 226.085403,4.500469 
	C225.938828,31.166330 226.000000,57.833332 226.000000,85.000000 
z"/>
<path fill="#121212" opacity="1.000000" stroke="none" 
	d="
M190.137375,27.753838 
	C194.669067,37.564693 190.598450,45.686974 178.859528,49.862808 
	C175.136108,51.187325 174.158859,52.647762 175.923813,56.023037 
	C180.018951,63.854477 179.416199,71.992592 177.286789,80.600616 
	C176.999359,81.775948 176.997650,82.571289 176.884445,83.657326 
	C175.770905,91.635780 173.820114,99.246262 174.891357,107.580299 
	C174.908554,108.473824 174.931564,108.898964 174.904297,109.644188 
	C174.756470,112.699753 174.633881,115.436668 174.300171,118.579247 
	C174.041580,119.421547 173.986023,119.857140 173.858032,120.614822 
	C172.524353,126.755295 175.017670,130.110229 180.378922,132.396378 
	C184.136581,133.998703 188.020370,135.645523 191.215256,138.404480 
	C194.824188,141.521011 194.556808,142.989410 190.536697,145.297974 
	C186.007507,147.898895 181.706818,150.897293 177.301437,153.714508 
	C175.560776,154.827637 174.521301,156.547134 175.551224,158.311188 
	C176.547287,160.017212 178.275833,158.606369 179.551086,158.094803 
	C181.545303,157.294785 183.423492,156.210068 185.376450,155.300980 
	C186.580170,154.740631 187.931366,154.068314 189.143280,154.967010 
	C190.608398,156.053467 189.000702,157.383621 189.121002,158.473022 
	C189.730957,163.996887 185.824600,167.416061 182.914658,170.874420 
	C180.817993,173.366226 179.563263,170.037537 178.364441,167.987762 
	C177.831070,167.496185 177.472153,167.418015 176.935226,167.738525 
	C179.085846,177.702698 178.249619,187.946045 181.734512,197.499832 
	C182.506149,199.615280 182.250504,202.086075 182.862350,204.283401 
	C183.941315,208.158325 181.819977,208.347794 178.565384,207.975403 
	C174.799301,200.078354 173.666153,191.698105 172.762360,183.319046 
	C172.333466,179.342712 171.562836,175.443039 171.049408,171.498138 
	C170.563126,167.761536 168.780243,167.178146 165.254700,167.561020 
	C153.016800,168.890045 141.658127,172.795654 130.412262,178.457764 
	C129.141113,178.990494 128.192200,179.306839 126.973618,179.926300 
	C125.540535,180.575745 124.514702,181.371704 123.209541,180.620636 
	C122.308685,180.578583 121.383850,180.901855 120.160599,181.443726 
	C115.113846,186.221725 108.493942,186.515472 102.827019,188.975082 
	C99.818970,190.280670 96.579102,190.991074 93.934494,193.118668 
	C91.332779,195.211807 88.126045,195.542908 84.996765,195.585175 
	C81.308144,195.634995 78.969513,192.635666 79.503273,189.840805 
	C80.737503,183.378128 77.563950,179.074478 73.832047,174.338440 
	C73.093925,173.028091 72.601753,171.990860 71.753845,170.777145 
	C71.001526,169.585922 70.481155,168.638321 69.611046,167.532639 
	C69.292786,167.095947 69.169975,166.917450 68.870193,166.465729 
	C67.731636,163.353836 63.869919,162.139053 64.207367,158.197891 
	C63.673439,157.307816 63.306583,156.699326 62.695625,155.966492 
	C58.157219,153.581924 55.582806,149.821579 53.389141,145.259430 
	C52.960434,143.912064 52.931633,142.909164 53.339287,141.548447 
	C53.660172,141.007553 53.829830,140.818405 54.339828,140.461166 
	C55.164738,140.177994 55.655205,140.128204 56.504768,140.229416 
	C60.683289,144.628830 64.623886,148.864929 68.078178,153.925186 
	C68.867020,154.817307 69.459915,155.445740 70.219635,156.352554 
	C70.765190,157.130280 71.050110,157.693192 71.517479,158.507660 
	C72.194504,159.667618 72.844284,160.448486 73.917160,161.285873 
	C74.316490,161.654175 74.467949,161.814575 74.816360,162.247513 
	C77.592735,168.514587 81.857254,173.395569 85.675232,178.907074 
	C85.784164,179.575211 85.185829,180.056427 85.653267,180.206894 
	C85.949959,180.302383 85.930901,179.472824 86.576660,179.015747 
	C92.274330,176.070862 98.214882,175.131790 104.074318,173.903473 
	C110.108025,172.638596 115.961311,170.716553 122.232773,168.840302 
	C130.503815,166.385361 138.709625,165.455551 147.037964,163.284576 
	C152.095139,161.547073 156.260239,158.839447 161.129242,156.675385 
	C168.894485,153.072617 168.968536,153.068680 168.537674,144.966125 
	C167.630768,127.912270 169.046585,110.866516 168.659973,93.402969 
	C168.733734,92.721336 168.775909,92.452888 168.915451,91.794456 
	C170.047684,89.054237 170.749756,86.616516 171.014954,83.677879 
	C171.422256,82.135262 171.731796,80.955627 171.723236,79.353394 
	C171.764648,78.258575 171.866608,77.537056 172.058197,76.463669 
	C172.571915,74.755257 172.758789,73.347885 173.052277,71.608368 
	C173.592545,69.721489 173.602997,68.176575 173.012894,66.304092 
	C169.154495,54.074265 170.695633,55.568012 159.782562,61.401199 
	C154.697052,64.119476 149.857910,67.227425 143.895538,68.871620 
	C142.860458,69.191772 142.156830,69.377510 141.094788,69.689117 
	C140.216629,69.868309 139.704071,69.881798 138.806839,69.734253 
	C136.811188,68.871651 136.048950,67.622116 136.393829,65.455933 
	C139.306885,62.206406 143.366760,61.912884 146.744690,60.200600 
	C155.049973,55.990650 163.198608,51.551758 171.012314,46.500900 
	C173.146820,45.121136 175.681839,44.764614 177.852020,43.518871 
	C183.379349,40.346058 187.547806,36.438854 185.894699,28.901577 
	C187.175049,27.695486 188.419556,27.494028 190.137375,27.753838 
z"/>
<path fill="#FAFAF9" opacity="1.000000" stroke="none" 
	d="
M128.791077,178.124939 
	C141.411057,170.831055 154.933228,167.174362 169.008102,165.223801 
	C171.652313,164.857346 172.215836,166.590408 172.458557,168.417465 
	C174.003510,180.046631 174.501602,191.837936 178.119812,203.140778 
	C178.499252,204.326126 178.062469,205.772781 178.062042,207.526184 
	C173.962006,209.393661 170.047226,209.734955 166.594650,206.153351 
	C164.742111,204.231598 163.386444,202.524170 164.588043,199.603012 
	C166.282074,195.484634 163.443359,192.253967 161.730530,188.994431 
	C160.776810,187.179474 158.821609,187.936142 157.429001,189.130630 
	C155.709045,190.605881 154.134750,192.202042 155.892914,194.625702 
	C157.135696,196.338913 158.980423,197.830948 157.243149,200.704498 
	C153.973175,196.137543 147.806732,199.370117 144.070847,195.419495 
	C143.122772,194.416962 141.929367,195.891190 142.058350,197.229263 
	C142.529922,202.121201 138.933426,202.449707 135.641815,202.933640 
	C133.847931,203.197403 131.969971,203.115326 130.152466,202.946594 
	C126.008774,202.561905 123.248062,200.979553 123.946968,196.013412 
	C124.449310,192.444031 123.266891,188.674545 125.319229,185.270020 
	C126.828529,182.766296 122.549820,183.137573 123.186584,180.649109 
	C123.980087,179.853271 124.726669,179.451233 125.742737,179.062012 
	C127.055511,179.480759 128.167404,180.144333 128.791077,178.124939 
z"/>
<path fill="#080708" opacity="1.000000" stroke="none" 
	d="
M190.476257,27.502396 
	C189.227432,28.232883 187.937485,28.622522 186.239777,29.037727 
	C182.889709,29.941710 180.600983,25.880709 177.905533,27.606491 
	C175.588364,29.090080 176.659454,32.644989 174.963028,34.802498 
	C174.146942,35.840401 173.573654,37.090221 171.928177,37.717625 
	C169.156250,37.071243 167.458023,37.963573 166.143219,40.453171 
	C162.208664,43.501820 157.434082,43.402218 153.405487,45.350834 
	C151.674286,46.188213 150.314209,44.707108 148.854202,43.984425 
	C144.294754,41.727535 143.302719,42.123096 141.544235,46.691269 
	C139.668671,51.563557 136.775833,55.321274 131.329987,56.609558 
	C128.114639,57.370190 125.241661,59.227810 121.612625,59.880234 
	C120.175667,59.791763 119.089867,59.731956 117.744537,60.360603 
	C116.187889,60.440586 115.065697,60.107025 113.793747,59.155815 
	C112.945602,57.585972 113.177727,56.403225 114.290833,55.039196 
	C115.765778,54.065693 116.970940,54.386589 118.515633,54.849510 
	C121.573166,55.644730 123.245995,54.146297 124.146179,51.955078 
	C124.733948,50.524349 124.186478,49.071400 121.857941,49.126060 
	C121.351341,49.306740 121.145226,49.367233 120.619057,49.440929 
	C119.889954,49.367325 119.492485,49.244232 118.831192,48.970940 
	C117.743622,48.532085 117.041847,48.822392 116.074570,49.367970 
	C114.215302,49.449093 112.942192,50.100704 111.644257,51.408363 
	C110.966324,53.218994 111.629257,55.141312 109.700150,56.531952 
	C102.464851,52.174057 95.559372,55.943069 88.300552,56.559418 
	C87.377823,55.846664 86.946503,55.208427 86.693710,54.048805 
	C88.690872,50.885212 92.017395,50.437840 94.870903,49.398865 
	C117.494553,41.161533 140.382385,33.669189 163.222290,25.279194 
	C163.465271,24.517454 164.444946,25.329233 163.851547,25.027304 
	C162.969757,24.578629 162.549301,25.483997 161.543289,25.794327 
	C151.428207,28.020338 141.435654,28.400507 131.536713,29.217363 
	C120.981026,30.088413 112.120216,34.441708 103.586617,40.062943 
	C100.540924,42.069199 97.663788,44.371071 93.670715,45.463280 
	C91.447258,45.004570 90.085251,44.181030 90.785324,41.602081 
	C97.882004,36.925934 104.670959,32.480461 111.629906,28.319298 
	C118.859161,23.996510 127.205246,24.323572 135.614685,23.149151 
	C136.830353,23.035477 137.615448,23.009441 138.697235,23.022718 
	C140.755112,22.667456 142.518234,22.309204 144.659271,22.027899 
	C147.447617,21.921923 149.862305,22.045069 152.636749,22.004255 
	C162.757874,19.289646 172.524307,19.351509 182.638702,22.142113 
	C183.864624,22.939209 184.842682,23.326569 186.127289,23.778206 
	C188.316467,24.287144 189.485077,25.593039 190.476257,27.502396 
z"/>
<path fill="#151515" opacity="1.000000" stroke="none" 
	d="
M90.687698,41.275909 
	C90.818077,42.701790 91.378105,43.776264 92.827171,44.765434 
	C92.160210,49.326351 87.739616,50.061237 85.039436,52.987553 
	C84.584961,53.328709 84.395432,53.455044 83.904053,53.740780 
	C79.483025,55.135139 77.298164,58.856133 73.879639,61.540356 
	C68.657730,65.719910 66.128510,71.585121 62.037758,76.649467 
	C61.331322,77.945099 60.753189,78.919907 60.105194,80.243034 
	C59.019932,82.090759 57.961220,83.551544 56.770824,85.329407 
	C54.827511,87.666405 53.383884,89.892998 52.679131,92.905952 
	C51.041119,95.564445 49.913826,98.073647 49.120888,101.111076 
	C48.125656,103.880325 47.365135,106.348976 46.946617,109.278961 
	C46.678257,110.319641 46.422256,110.990082 46.104416,112.020561 
	C45.624977,113.524948 45.222153,114.674744 44.875732,116.236694 
	C44.271614,118.384422 44.401608,120.255005 43.914330,122.457626 
	C40.930927,134.622421 39.034695,146.381790 39.706482,158.669235 
	C40.138180,166.565323 42.272408,174.299744 41.416283,182.627701 
	C41.153088,183.449768 41.112419,183.895126 41.158638,184.666702 
	C44.253860,189.208344 44.705421,194.134674 44.922836,199.372681 
	C44.958481,199.980652 45.228489,200.276886 46.077072,200.409637 
	C47.155838,200.013702 47.256916,200.202499 46.830170,200.509628 
	C46.191967,200.273682 45.821838,200.193588 45.132835,200.583588 
	C46.407379,202.108459 46.238583,203.787445 46.197716,205.684845 
	C46.543915,209.155350 44.130718,207.749908 42.833607,208.008636 
	C41.343685,208.305832 40.937725,207.433334 40.652603,206.082809 
	C36.189960,184.944519 32.346123,163.623535 34.052277,141.999832 
	C34.856514,131.806961 36.541225,121.417900 39.983818,111.540512 
	C41.497910,107.196358 41.925007,102.584816 43.565117,98.188805 
	C46.135845,91.298447 48.775070,84.561501 53.590378,78.903564 
	C55.882462,76.210388 57.286934,73.013847 59.047455,69.633003 
	C60.780701,65.988373 62.602787,62.796566 65.704964,60.198486 
	C73.580452,53.129501 82.000336,47.258171 90.687698,41.275909 
z"/>
<path fill="#FAFAF9" opacity="1.000000" stroke="none" 
	d="
M73.793045,172.824188 
	C75.945618,175.300400 78.072800,177.479721 79.524315,180.041840 
	C80.970016,182.593674 82.985214,185.153152 80.832481,188.631119 
	C79.422165,190.909637 82.006248,193.886246 83.195892,193.860031 
	C86.503471,193.787140 90.485779,196.752731 93.238510,192.413162 
	C94.954979,189.707230 97.746986,188.834885 100.719307,187.953842 
	C106.918106,186.116455 112.985222,183.834747 119.484306,181.698959 
	C120.788300,183.581070 124.955704,184.879868 121.061417,187.724380 
	C118.070694,189.908905 114.793678,191.349854 111.261467,189.318756 
	C110.038139,188.615326 108.139893,187.669022 108.444687,189.097824 
	C109.562546,194.338196 105.858986,192.026352 104.538109,191.571579 
	C99.915848,189.980240 97.369232,192.400558 95.139885,195.720642 
	C91.860733,200.604187 89.309677,201.368973 84.114639,198.799316 
	C83.250420,198.371826 82.602432,198.200531 82.127625,199.239716 
	C80.059189,203.766785 78.258080,202.016953 76.385818,199.048920 
	C75.434509,197.540863 73.931511,197.086838 72.125816,196.961014 
	C64.134201,196.404160 58.664722,191.456558 61.594490,182.784012 
	C61.981792,181.637527 62.036140,180.524185 61.644188,179.377121 
	C59.166927,172.127289 59.263416,165.134155 63.890335,158.250214 
	C66.563850,159.920471 68.128914,162.672928 69.840973,165.664001 
	C69.298599,166.606857 69.143661,167.486115 68.588371,168.055496 
	C66.879677,169.807587 65.531723,171.651886 67.674988,173.883194 
	C70.116196,176.424698 71.632080,173.578125 73.793045,172.824188 
z"/>
<path fill="#FAFAF9" opacity="1.000000" stroke="none" 
	d="
M41.569210,182.947968 
	C36.951382,164.260391 37.243984,145.460953 40.585926,126.640686 
	C40.839581,125.212212 41.620960,123.877434 42.402626,122.221458 
	C43.554478,121.537613 44.236343,120.661583 45.693264,120.738907 
	C48.397556,126.768723 46.980190,133.088989 47.613834,139.361252 
	C49.510216,139.670166 50.237431,136.188797 52.431938,138.454224 
	C52.771755,139.206451 52.849098,139.671616 52.833519,140.501617 
	C52.439098,142.437637 51.889805,143.950531 50.972191,145.450211 
	C52.003044,145.209412 52.581844,144.099808 53.963219,144.720291 
	C56.896336,148.339371 59.537155,151.769287 62.314751,155.520660 
	C59.380554,156.979111 56.215687,157.301773 52.962086,157.016724 
	C51.402992,156.880157 49.946091,157.212326 49.164742,158.750122 
	C48.307587,160.437073 46.964970,161.074188 45.137939,161.009354 
	C43.210419,160.940933 41.348530,161.210846 41.105473,163.619736 
	C40.892242,165.733002 40.827637,167.579346 43.242359,169.091125 
	C46.652245,171.225922 45.558502,180.618896 41.569210,182.947968 
z"/>
<path fill="#F0F0EF" opacity="1.000000" stroke="none" 
	d="
M65.872246,59.861252 
	C63.951401,63.100559 61.850639,66.050400 59.441086,69.149925 
	C58.453232,66.755394 57.744488,64.376503 58.890942,61.593815 
	C60.918255,56.673084 61.114384,56.458385 65.872246,59.861252 
z"/>
<path fill="#FAFAF9" opacity="1.000000" stroke="none" 
	d="
M45.062599,199.397736 
	C43.512604,195.042664 42.336731,190.400925 41.203194,185.376053 
	C42.062046,184.943893 42.880981,184.830750 43.694496,184.861420 
	C44.802475,184.903198 45.363083,182.579483 46.525249,183.944122 
	C47.502808,185.091995 47.052116,186.395248 45.451984,187.026169 
	C44.051716,187.578247 44.422039,188.308319 45.216972,189.207504 
	C48.061863,192.425400 47.778435,195.755753 45.062599,199.397736 
z"/>
<path fill="#121212" opacity="1.000000" stroke="none" 
	d="
M152.642990,21.923603 
	C150.665588,23.811089 148.103851,22.969830 145.311859,22.374252 
	C147.453842,22.017660 149.870544,21.930477 152.642990,21.923603 
z"/>
<path fill="#FAFAF9" opacity="1.000000" stroke="none" 
	d="
M46.381004,205.952545 
	C44.538048,204.826126 45.330181,202.902603 44.698689,201.266449 
	C47.127800,202.013672 50.202576,202.676376 46.381004,205.952545 
z"/>
<path fill="#FAFAF9" opacity="1.000000" stroke="none" 
	d="
M46.920883,200.475723 
	C46.562092,200.353775 46.750233,200.253021 46.702942,200.249603 
	C46.965878,199.554474 46.972725,198.565094 48.077000,198.624710 
	C48.296181,198.636566 48.632229,198.999771 48.679554,199.246048 
	C48.892029,200.351913 48.235725,200.651093 46.920883,200.475723 
z"/>
<path fill="#121212" opacity="1.000000" stroke="none" 
	d="
M138.756027,22.922874 
	C138.318283,24.013828 137.455139,24.158228 136.241959,23.372393 
	C136.873154,23.036524 137.696609,22.928286 138.756027,22.922874 
z"/>
<path fill="#181818" opacity="1.000000" stroke="none" 
	d="
M176.969391,83.676361 
	C175.820190,83.130783 175.736572,82.226280 176.841217,81.111633 
	C177.079697,81.790154 177.085892,82.595078 176.969391,83.676361 
z"/>
<path fill="#6C6C6C" opacity="1.000000" stroke="none" 
	d="
M177.125000,167.871979 
	C175.989365,167.178864 175.631775,165.956100 176.545303,165.434601 
	C177.989868,164.610001 177.828842,166.275894 178.189880,167.365112 
	C177.930740,167.726959 177.696457,167.747620 177.125000,167.871979 
z"/>
<path fill="#121212" opacity="1.000000" stroke="none" 
	d="
M186.246811,23.565380 
	C185.262939,23.930655 184.017715,24.316494 183.078369,22.699257 
	C184.005356,22.670362 185.030655,22.983303 186.246811,23.565380 
z"/>
<path fill="#181818" opacity="1.000000" stroke="none" 
	d="
M174.994751,109.791183 
	C174.207672,109.560768 173.931854,109.054428 174.653809,108.194450 
	C174.941284,108.573395 175.025864,109.096466 174.994751,109.791183 
z"/>
<path fill="#181818" opacity="1.000000" stroke="none" 
	d="
M173.957001,120.731186 
	C172.988785,120.397369 172.898666,119.809128 173.883209,119.074097 
	C174.099030,119.498024 174.109009,120.011131 173.957001,120.731186 
z"/>
<path fill="#FCFCFC" opacity="1.000000" stroke="none" 
	d="
M46.127602,110.109047 
	C45.364265,106.945602 46.568985,104.304565 47.958725,101.331589 
	C48.379944,100.909485 48.590462,100.813461 49.125534,100.837975 
	C51.607635,103.076309 53.867676,101.789589 54.867455,100.153801 
	C56.409931,97.630058 58.267532,95.412308 60.049488,93.109512 
	C61.758926,90.900429 59.968609,89.121613 59.438316,86.855164 
	C59.538235,86.326286 59.618481,86.127274 59.918488,85.703522 
	C60.758865,85.008400 61.513523,84.715073 62.116737,83.821320 
	C62.415913,82.354233 61.137402,81.443291 61.638557,79.868790 
	C62.029846,79.174026 62.351353,78.842712 63.024124,78.363564 
	C66.537582,77.393059 68.271355,74.878822 69.885429,72.366539 
	C73.880798,66.147789 80.956848,65.169205 87.090263,66.914268 
	C90.750496,67.955673 91.571388,70.479553 89.155579,73.170403 
	C87.759254,74.725685 84.102142,75.787521 86.602112,78.415970 
	C88.864380,80.794495 92.129204,80.075569 94.701958,77.871178 
	C95.073265,77.553032 95.347504,77.113129 96.024826,76.539093 
	C100.367355,75.032120 104.374535,75.521172 108.740395,76.498070 
	C111.554512,77.675056 114.042755,78.243546 116.801529,78.252312 
	C119.245842,78.260063 120.526237,77.328835 121.540878,74.977287 
	C122.751984,73.928345 123.809967,73.444489 125.367134,74.212830 
	C129.294434,77.344734 132.367126,74.317108 135.510345,73.279305 
	C137.457275,72.636497 139.100143,71.049095 140.742279,69.167679 
	C141.446594,68.644653 141.932983,68.390709 142.704590,68.170013 
	C147.622345,69.548363 152.121414,68.635918 156.511200,67.185501 
	C161.053253,65.684784 165.493301,63.958294 170.442169,64.454414 
	C171.657974,64.576302 172.728455,64.669502 173.883087,65.773117 
	C174.279190,67.491615 174.396255,68.999222 174.355438,70.792435 
	C172.470490,72.218239 173.068069,73.898163 173.286591,75.793945 
	C173.297226,76.851807 173.200302,77.580803 172.946686,78.647430 
	C172.604004,79.178764 172.417999,79.372459 171.929367,79.830917 
	C170.126007,81.064751 169.114029,82.892982 167.052185,82.871849 
	C163.172119,82.832085 162.420898,85.279457 162.408463,88.459785 
	C162.384415,94.605850 162.378891,100.752129 162.399857,106.897827 
	C162.411377,110.273125 161.679123,113.140915 158.377106,114.813248 
	C156.993179,115.514168 155.788269,116.647491 155.746994,118.230690 
	C155.595810,124.029335 154.298950,129.768051 154.728119,135.579941 
	C155.000946,139.274673 156.153000,142.474289 159.116241,145.236816 
	C162.617462,148.500854 161.116425,153.290665 161.235306,157.807785 
	C157.110428,160.148911 153.213989,162.159836 148.985184,164.213409 
	C145.733383,164.576935 144.337830,163.003540 143.894882,160.347534 
	C143.252380,156.494797 140.855026,154.861588 137.169754,155.389404 
	C131.486481,156.203354 126.159058,152.713654 120.411560,154.263916 
	C117.659454,155.006226 114.736458,155.063934 114.368263,158.931854 
	C113.988220,162.924118 115.621262,165.197876 119.465668,166.239090 
	C121.092438,166.679703 123.276550,166.795593 123.202942,169.634460 
	C115.804474,172.981201 108.209892,174.563095 100.636482,176.265976 
	C95.968285,177.315598 91.378616,178.714417 86.376465,180.016510 
	C85.782593,180.197296 85.565948,180.318054 85.224159,180.088440 
	C80.432953,174.715851 76.645622,169.070450 73.492874,162.781403 
	C73.855949,162.238419 74.035408,162.025162 74.218521,161.815002 
	C74.400948,161.605667 74.319633,161.655640 73.761185,162.143250 
	C71.987480,162.114532 71.782875,160.636078 71.006454,159.334595 
	C70.949791,158.337234 70.658859,157.794922 69.853119,157.258408 
	C69.023987,156.643311 68.499588,156.124756 67.870438,155.346863 
	C68.227814,153.978851 69.511795,153.552170 69.965584,152.436569 
	C66.566299,151.724564 68.165245,147.448334 65.455818,146.167633 
	C62.865269,144.943100 62.516567,142.787003 63.622364,139.987961 
	C65.059959,138.741989 66.652168,138.792542 68.015358,138.210510 
	C71.809700,136.590454 72.881516,133.878937 70.760437,130.396469 
	C68.401566,126.523567 68.478645,122.908646 71.076042,119.270363 
	C71.558228,118.594948 72.008881,117.901817 72.399765,117.166931 
	C74.992958,112.291618 74.976448,112.327057 70.301895,109.618057 
	C68.718369,108.700363 66.976311,108.127472 65.426422,107.144432 
	C64.124710,106.318794 63.119862,104.177109 61.241703,105.409981 
	C59.892521,106.295609 60.201248,108.162308 60.346264,109.604408 
	C61.236732,118.459335 60.423622,127.389435 61.494492,136.607819 
	C60.730980,138.311020 59.530186,138.832657 57.735329,139.112167 
	C56.758099,139.144028 56.203159,139.081070 55.249519,138.842224 
	C54.053158,138.408218 53.354359,137.952011 52.525944,137.006348 
	C51.118820,133.324341 51.561314,129.851868 51.654430,126.453186 
	C51.753708,122.829659 50.710144,120.399162 46.467033,119.674500 
	C45.459919,118.912933 45.181335,118.167336 45.081303,116.937469 
	C45.314976,115.128632 46.237083,114.264481 47.707321,113.414780 
	C51.089794,111.431900 51.178787,111.123352 48.907295,109.242157 
	C47.872910,109.598907 47.238152,110.158134 46.127602,110.109047 
z"/>
<path fill="#F7F7F7" opacity="1.000000" stroke="none" 
	d="
M95.803421,76.591721 
	C96.279724,79.473991 94.745018,80.680206 92.564812,80.853508 
	C89.826027,81.071205 86.482468,81.983635 84.682434,79.341530 
	C83.031342,76.918045 83.523048,74.167030 86.978767,73.158470 
	C88.640457,72.673508 89.690903,71.616356 89.597084,70.020775 
	C89.479637,68.023384 87.633156,68.342384 86.216331,67.956345 
	C78.154991,65.759880 72.787285,69.181679 69.001587,75.997406 
	C67.842003,78.085114 66.246506,79.242569 63.409172,79.010040 
	C62.263901,78.726036 61.728626,78.169426 61.136551,77.272743 
	C63.703636,70.982071 68.285583,66.312149 72.606812,61.094540 
	C74.650826,59.953976 76.527878,60.380722 78.682617,60.422371 
	C82.401047,62.262936 84.449928,61.204437 85.437920,57.233078 
	C86.163918,56.379742 86.777161,56.094719 87.314102,56.733505 
	C87.713120,56.830368 88.347984,56.652534 88.977783,56.458305 
	C95.691040,54.387962 102.379997,49.877865 109.555191,56.241844 
	C110.552612,56.069637 111.118233,56.222721 111.896782,56.678677 
	C112.401726,57.112026 112.657059,57.388702 113.053398,57.900948 
	C113.334038,58.251801 113.455437,58.383743 113.792297,58.676651 
	C115.107170,59.254204 116.206589,59.670795 117.650391,59.991119 
	C118.427032,59.520279 118.884789,59.193211 119.753738,59.106331 
	C124.871864,57.472523 129.826447,56.115189 134.499008,54.102959 
	C137.780685,52.689709 139.595047,49.421616 140.725739,46.151917 
	C142.676956,40.509388 144.422318,39.175529 149.070358,42.707672 
	C152.110672,45.018074 154.075729,43.974751 156.548294,43.208775 
	C159.493179,42.296474 162.355316,41.116985 165.620422,39.928291 
	C167.117691,38.281807 168.608505,37.490932 170.811951,37.727264 
	C174.833710,36.014389 175.960190,31.773340 176.255341,28.771448 
	C176.718475,24.061150 178.867432,25.710402 180.932007,26.357405 
	C182.459793,26.836185 183.792023,27.938883 185.521713,28.913460 
	C189.050247,36.151772 186.369766,42.194122 177.117844,45.526375 
	C170.306366,47.979656 164.626953,52.181564 158.374924,55.454556 
	C151.634872,58.983044 145.174210,63.000965 137.329407,64.946663 
	C136.073959,66.622002 134.794540,67.582878 133.074020,67.990257 
	C121.276077,70.783768 109.581192,74.295120 97.218803,73.132446 
	C93.998001,72.829529 93.454643,73.836792 95.803421,76.591721 
z"/>
<path fill="#F7F8F3" opacity="1.000000" stroke="none" 
	d="
M161.372589,158.093628 
	C160.333817,155.212692 159.077209,152.388275 159.939636,149.235153 
	C160.260529,148.061935 159.606216,146.844711 158.599701,146.187271 
	C151.759506,141.719360 152.926376,135.082047 153.648727,128.509201 
	C153.901505,126.209221 154.040665,123.875824 153.969025,121.565834 
	C153.849579,117.715767 153.938293,114.231316 158.734848,113.033264 
	C161.182449,112.421928 161.014801,110.102242 161.009399,108.066872 
	C160.990845,101.083992 161.015762,94.100990 160.997437,87.118111 
	C160.987518,83.336304 161.600388,80.176430 166.600662,81.763283 
	C169.307144,82.622192 168.784393,78.410988 171.586304,79.008865 
	C173.140945,80.093346 171.703262,81.429207 172.424896,82.862549 
	C171.974823,85.587837 171.390594,88.027908 170.594360,90.692200 
	C169.119522,108.853210 169.685715,126.821541 169.454498,144.776108 
	C169.450226,145.108643 169.366638,145.480331 169.482513,145.768387 
	C172.570892,153.445923 167.114487,155.720459 161.372589,158.093628 
z"/>
<path fill="#F9FAF5" opacity="1.000000" stroke="none" 
	d="
M123.385422,169.964630 
	C122.433716,166.903732 119.502747,167.617615 117.790230,167.235336 
	C112.102257,165.965668 113.072433,161.814301 112.986778,157.915100 
	C112.889679,153.494858 116.431076,153.748627 119.146721,153.046722 
	C126.678307,151.100052 133.916397,155.119293 141.480759,154.225296 
	C143.930466,153.935791 144.544678,156.800735 144.976028,158.942474 
	C145.388489,160.990372 145.302277,163.314072 148.319763,164.128906 
	C140.561829,167.043259 131.988586,167.733383 123.385422,169.964630 
z"/>
<path fill="#171717" opacity="1.000000" stroke="none" 
	d="
M96.445786,76.820000 
	C94.142159,76.294533 91.639465,75.953110 92.118767,73.310333 
	C92.669312,70.274788 95.202927,71.740318 97.000496,71.847870 
	C107.194855,72.457794 117.191292,71.319778 126.873840,68.104401 
	C129.986755,67.070671 133.614105,67.751518 136.635895,65.207497 
	C136.930344,66.602875 137.111221,67.948097 138.846436,68.919037 
	C138.541092,72.178925 135.844711,72.563667 133.508011,72.997452 
	C130.886871,73.484032 128.390152,74.322525 125.482880,74.837776 
	C124.410049,73.401443 123.337219,74.364670 122.150284,74.365829 
	C118.636024,77.651009 114.279343,76.734268 110.017715,77.722687 
	C105.473122,76.331764 101.172951,76.649704 96.445786,76.820000 
z"/>
<path fill="#F0F0EF" opacity="1.000000" stroke="none" 
	d="
M174.281174,65.604378 
	C166.977066,65.139313 160.367706,67.481888 153.535568,69.146286 
	C150.453445,69.897141 146.401657,73.129456 143.056335,68.532501 
	C151.491898,65.726135 158.743210,60.736691 166.307617,56.418621 
	C169.304199,54.708050 170.700104,55.153278 171.674820,58.383919 
	C172.381195,60.725174 173.477692,62.948723 174.281174,65.604378 
z"/>
<path fill="#F0F0EF" opacity="1.000000" stroke="none" 
	d="
M176.660004,149.140259 
	C174.463028,147.529770 172.686478,137.636810 173.738815,135.509140 
	C174.521210,133.927261 175.647629,134.567184 176.635361,135.052261 
	C179.597977,136.507233 182.534363,138.018875 185.443832,139.577759 
	C188.006119,140.950638 187.609604,142.452332 185.448135,143.840347 
	C182.675018,145.621140 179.863739,147.342514 176.660004,149.140259 
z"/>
<path fill="#F7F7F7" opacity="1.000000" stroke="none" 
	d="
M56.761005,138.360870 
	C58.120026,137.759583 59.239914,137.519165 60.680340,137.139679 
	C63.319324,135.959869 64.160294,137.179718 64.225800,139.627808 
	C63.560463,142.950989 64.211853,145.192215 67.601036,145.771622 
	C69.752083,146.139389 69.911400,147.028824 68.487411,148.672150 
	C67.718719,149.559235 68.259308,150.426590 69.411575,150.915009 
	C70.242897,151.267380 72.199417,150.274628 71.750084,151.989746 
	C71.421135,153.245331 70.816887,155.351944 68.141159,155.061478 
	C64.324356,150.569687 60.139828,146.637543 57.080246,141.440125 
	C56.409836,140.422089 56.212914,139.614990 56.761005,138.360870 
z"/>
<path fill="#F0F0EF" opacity="1.000000" stroke="none" 
	d="
M125.122910,75.063248 
	C127.072884,72.296127 129.918991,71.872108 132.649780,71.572609 
	C134.854813,71.330757 136.829178,70.773361 138.915771,69.338821 
	C139.557541,69.006248 139.955124,68.943733 140.656464,68.889908 
	C141.388702,71.182503 139.460907,71.758293 138.268997,73.064026 
	C135.354950,76.256355 130.846527,75.283043 127.631859,77.684364 
	C126.545929,78.495544 125.337563,76.945053 125.122910,75.063248 
z"/>
<path fill="#FCFCFC" opacity="1.000000" stroke="none" 
	d="
M74.067284,172.649307 
	C73.080803,175.567230 70.750946,176.587585 68.359093,176.506699 
	C65.710625,176.417130 65.576302,173.262436 64.985100,171.639847 
	C63.879330,168.604980 68.128647,168.310181 69.531540,166.064636 
	C69.858284,166.003845 70.163834,166.216705 70.153984,166.402634 
	C70.563904,167.628525 69.829109,169.259918 71.929527,169.750534 
	C72.798126,170.735184 73.409073,171.540253 74.067284,172.649307 
z"/>
<path fill="#D3D3D3" opacity="1.000000" stroke="none" 
	d="
M107.647217,180.531815 
	C103.525772,182.487915 99.653198,184.886566 95.069893,185.075943 
	C94.131561,185.114731 92.854767,185.281906 92.627716,184.011902 
	C92.396416,182.718124 93.693207,182.434845 94.566299,182.259094 
	C98.890488,181.388641 103.017105,179.254044 107.647217,180.531815 
z"/>
<path fill="#FEFEFE" opacity="1.000000" stroke="none" 
	d="
M54.243877,144.531281 
	C51.056175,144.869781 52.827049,148.402496 50.782524,149.658676 
	C49.095917,146.644958 50.505253,144.077728 51.718174,141.243317 
	C52.578709,140.610413 53.210049,140.485031 54.288940,140.932190 
	C54.533428,142.211411 54.382835,143.182251 54.243877,144.531281 
z"/>
<path fill="#FEFEFE" opacity="1.000000" stroke="none" 
	d="
M128.625778,177.884613 
	C129.476562,179.156601 130.568604,180.636169 128.572113,181.487289 
	C127.068825,182.128159 126.949135,180.405060 126.146561,179.363220 
	C126.775276,178.682037 127.538330,178.289261 128.625778,177.884613 
z"/>
<path fill="#F7F7F7" opacity="1.000000" stroke="none" 
	d="
M54.787350,141.253296 
	C54.088425,141.175629 53.492825,141.110718 52.448532,141.022903 
	C51.999710,140.555145 51.999573,140.110291 51.999619,139.331802 
	C52.460346,138.554443 52.324158,137.905533 52.778008,137.192078 
	C53.556911,137.169693 54.113056,137.338150 54.836143,137.752350 
	C55.603680,138.703903 55.769424,139.494705 55.233154,140.732346 
	C54.998455,141.087891 54.890675,141.266037 54.787350,141.253296 
z"/>
<path fill="#F0F0EF" opacity="1.000000" stroke="none" 
	d="
M173.583252,75.801834 
	C171.506180,74.451065 171.119034,72.791092 173.815338,71.115158 
	C174.820160,72.619461 173.820084,74.004181 173.583252,75.801834 
z"/>
<path fill="#FAFAF9" opacity="1.000000" stroke="none" 
	d="
M72.156616,169.589706 
	C69.912193,170.317337 69.250244,169.392975 70.091759,166.938629 
	C71.239479,167.151672 71.743126,168.155518 72.156616,169.589706 
z"/>
<path fill="#FAFAF9" opacity="1.000000" stroke="none" 
	d="
M55.319733,141.136124 
	C54.999199,140.315094 54.999939,139.542297 55.001884,138.383789 
	C55.446842,137.998627 55.890598,137.999176 56.667244,137.999863 
	C56.994259,138.793152 56.988380,139.586304 56.960823,140.776031 
	C56.506435,141.176514 56.073723,141.180435 55.319733,141.136124 
z"/>
<path fill="#F0F0EF" opacity="1.000000" stroke="none" 
	d="
M172.681244,82.818779 
	C170.324493,82.383354 171.798309,80.917068 171.933670,79.354630 
	C171.959137,79.000336 172.374191,78.971901 172.582108,78.978485 
	C172.794510,80.153305 172.798981,81.321541 172.681244,82.818779 
z"/>
<path fill="#F7F7F7" opacity="1.000000" stroke="none" 
	d="
M69.666168,157.441254 
	C70.508423,157.220612 71.920479,156.689224 71.207108,158.815445 
	C70.571754,158.582535 70.177856,158.151581 69.666168,157.441254 
z"/>
<path fill="#121312" opacity="1.000000" stroke="none" 
	d="
M85.083450,180.000092 
	C85.266548,179.747986 85.434067,179.757904 85.800415,179.922180 
	C85.849602,180.430435 85.699959,180.784332 85.550316,181.138229 
	C85.389503,180.846191 85.228691,180.554169 85.083450,180.000092 
z"/>
<path fill="#181818" opacity="1.000000" stroke="none" 
	d="
M170.346771,90.950462 
	C170.215744,91.042252 170.049133,91.168076 169.882507,91.293900 
	C169.993744,91.282410 170.104980,91.270927 170.231613,91.084610 
	C170.247009,90.909782 170.311188,90.984497 170.346771,90.950462 
z"/>
<path fill="#121312" opacity="1.000000" stroke="none" 
	d="
M112.468094,177.450500 
	C112.522942,177.417877 112.413239,177.483139 112.468094,177.450500 
z"/>
<path fill="#181818" opacity="1.000000" stroke="none" 
	d="
M173.467270,58.453129 
	C173.521561,58.420933 173.412979,58.485325 173.467270,58.453129 
z"/>
<path fill="#E7E7E5" opacity="1.000000" stroke="none" 
	d="
M170.636017,183.095825 
	C170.368668,182.829193 170.258911,182.430939 170.205429,182.025284 
	C170.196014,181.953888 170.422180,181.851410 170.539566,181.763290 
	C170.630630,182.162750 170.721695,182.562225 170.636017,183.095825 
z"/>
<path fill="#E7E7E5" opacity="1.000000" stroke="none" 
	d="
M171.249222,176.637970 
	C171.007339,176.623413 170.875870,176.494781 170.744385,176.366180 
	C170.949463,176.418747 171.154541,176.471329 171.249222,176.637970 
z"/>
<path fill="#F0F0EF" opacity="1.000000" stroke="none" 
	d="
M175.465729,200.445221 
	C175.524551,200.409073 175.406906,200.481369 175.465729,200.445221 
z"/>
<path fill="#EEEFEE" opacity="1.000000" stroke="none" 
	d="
M84.151367,53.262306 
	C86.090698,49.622025 90.015862,48.367802 92.834991,45.319252 
	C96.284348,43.105572 99.782928,41.471054 102.796738,39.194714 
	C113.993050,30.738092 126.799339,27.643160 140.516556,26.949539 
	C147.411789,26.600876 154.274490,25.608908 161.564240,24.753540 
	C163.146286,24.163614 164.216812,24.260857 165.138458,25.616415 
	C140.902100,34.540108 116.660889,43.035263 92.417885,51.525314 
	C90.695023,52.128670 88.959023,52.694489 87.055893,53.613533 
	C85.934349,54.459351 85.129539,54.081055 84.151367,53.262306 
z"/>
<path fill="#110F12" opacity="1.000000" stroke="none" 
	d="
M120.957184,48.965324 
	C121.708542,46.376717 123.022705,46.888939 124.380569,47.969002 
	C125.834778,49.125694 126.468033,50.699970 125.676453,52.402069 
	C124.454506,55.029560 122.446960,56.659611 119.130997,56.032318 
	C118.569176,54.903477 118.777855,54.053944 118.915970,52.887405 
	C119.052094,52.140057 119.179169,51.724869 119.493813,51.030220 
	C120.022346,50.208435 120.630310,49.883141 120.957184,48.965324 
z"/>
<path fill="#110F12" opacity="1.000000" stroke="none" 
	d="
M114.011650,58.471344 
	C113.839493,58.895748 113.671219,58.953892 113.242462,58.953186 
	C112.678139,58.643070 112.389023,58.375950 111.832352,58.011467 
	C111.077484,57.506592 110.607201,57.080761 110.036545,56.436913 
	C110.932388,54.498032 109.564896,52.979675 109.741203,51.171181 
	C111.110809,50.048405 112.203346,50.940071 113.632324,51.266632 
	C114.740654,52.083370 115.092682,52.949657 115.138359,54.290913 
	C114.721581,55.797703 114.368561,56.951393 114.011650,58.471344 
z"/>
<path fill="#1D131C" opacity="1.000000" stroke="none" 
	d="
M114.103821,52.090027 
	C112.730042,51.702126 111.679581,51.377285 110.296318,51.023354 
	C111.647804,50.115612 112.928772,48.203751 115.542511,48.968910 
	C117.762360,48.269451 119.197266,48.950153 120.154388,50.934784 
	C119.976471,51.739399 119.967453,52.143837 119.930412,52.850529 
	C117.750282,54.610634 116.159241,52.995579 114.103821,52.090027 
z"/>
<path fill="#4D3B47" opacity="1.000000" stroke="none" 
	d="
M113.846375,52.320763 
	C116.046959,49.922901 117.218826,53.692570 119.558624,53.096226 
	C119.671257,53.849174 119.440125,54.545563 119.077461,55.488518 
	C117.879265,55.428440 116.812592,55.121799 115.410263,54.729588 
	C114.687149,53.967529 114.299698,53.291042 113.846375,52.320763 
z"/>
<path fill="#161315" opacity="1.000000" stroke="none" 
	d="
M155.271637,38.671486 
	C152.543335,39.476479 150.555069,38.669849 148.543106,36.250633 
	C150.782898,36.134064 152.502716,36.044556 154.567963,35.928787 
	C155.646027,36.569153 155.762726,37.385227 155.271637,38.671486 
z"/>
<path fill="#121212" opacity="1.000000" stroke="none" 
	d="
M155.377228,38.986435 
	C155.026474,38.261971 155.003555,37.475826 154.947021,36.296104 
	C155.435669,31.187374 157.251556,33.494537 158.921295,35.630791 
	C156.755600,35.828644 157.359222,38.652039 155.377228,38.986435 
z"/>
<path fill="#595059" opacity="1.000000" stroke="none" 
	d="
M120.339020,51.262123 
	C119.434570,49.641182 117.664223,49.947842 116.183029,49.113747 
	C116.149300,47.320805 116.906700,46.470451 118.892990,47.727676 
	C119.230019,48.146545 119.342590,48.307987 119.730446,48.576111 
	C120.005722,48.682789 120.494751,48.692356 120.738228,48.667545 
	C122.027260,49.621246 122.630409,50.549522 120.339020,51.262123 
z"/>
<path fill="#110F12" opacity="1.000000" stroke="none" 
	d="
M83.975082,52.971436 
	C84.254463,54.363541 85.492012,53.532570 86.544632,53.943645 
	C87.682274,54.551090 87.947533,55.311913 87.326035,56.639709 
	C87.003754,57.212872 86.864243,57.319672 86.572136,57.293488 
	C85.910675,57.494164 85.314964,57.594902 84.272156,57.374100 
	C83.001106,56.116364 82.944145,54.959461 83.771889,53.367462 
	C84.039200,52.993961 83.998383,52.958614 83.975082,52.971436 
z"/>
<path fill="#121212" opacity="1.000000" stroke="none" 
	d="
M170.997589,37.519543 
	C169.604477,38.531265 168.110519,39.171333 166.302032,39.807365 
	C166.433105,36.716690 167.752228,35.244991 170.997589,37.519543 
z"/>
<path fill="#121212" opacity="1.000000" stroke="none" 
	d="
M165.490906,26.049900 
	C165.096893,24.286528 163.719086,24.883781 162.376740,24.654423 
	C163.684662,21.876741 165.943466,23.864819 167.226837,24.629873 
	C168.410248,25.335339 166.687180,25.839025 165.490906,26.049900 
z"/>
<path fill="#121212" opacity="1.000000" stroke="none" 
	d="
M159.063995,35.891663 
	C159.860413,35.694561 160.606476,35.572731 161.352539,35.450901 
	C161.342056,35.867645 161.491547,36.525318 161.292221,36.657677 
	C160.587723,37.125484 159.745544,38.086971 158.954712,36.370522 
	C158.893524,36.102478 159.013657,35.966934 159.063995,35.891663 
z"/>
<path fill="#110F12" opacity="1.000000" stroke="none" 
	d="
M119.883888,58.868126 
	C119.548920,59.401791 119.060081,59.693951 118.283005,59.940475 
	C118.198349,58.959232 118.271637,57.845356 119.883888,58.868126 
z"/>
<path fill="#161315" opacity="1.000000" stroke="none" 
	d="
M146.260223,35.641357 
	C146.008255,35.626236 145.871048,35.491966 145.733841,35.357693 
	C145.947556,35.412529 146.161255,35.467365 146.260223,35.641357 
z"/>
<path fill="#1D131C" opacity="1.000000" stroke="none" 
	d="
M119.888885,48.530746 
	C120.005722,48.682789 119.557007,48.726456 119.557007,48.726456 
	C119.557007,48.726456 119.221642,48.425209 119.169548,48.205158 
	C119.366585,48.064896 119.584778,48.196095 119.888885,48.530746 
z"/>
<path fill="#DADADA" opacity="1.000000" stroke="none" 
	d="
M83.691589,52.852303 
	C85.156265,54.058128 83.290283,55.063240 84.087372,56.541382 
	C84.832756,60.834213 81.510231,60.138325 79.136780,61.017838 
	C77.031776,61.534573 75.328178,61.917328 73.279549,61.023254 
	C76.559929,58.406693 79.116142,54.506607 83.691589,52.852303 
z"/>
<path fill="#F7F7F7" opacity="1.000000" stroke="none" 
	d="
M49.328262,101.250053 
	C48.993649,101.015068 48.581512,101.012390 48.375465,101.008942 
	C47.974171,97.792603 50.155102,95.431442 51.396507,92.350067 
	C53.649418,92.933327 54.715588,94.775360 56.147495,96.771851 
	C55.439007,100.657822 53.201046,102.064781 49.328262,101.250053 
z"/>
<path fill="#EEEFEE" opacity="1.000000" stroke="none" 
	d="
M56.248245,96.732246 
	C53.586750,96.621399 53.143604,94.316963 51.758186,92.430481 
	C52.144836,89.349640 53.549503,87.105827 55.548485,84.845703 
	C56.302891,84.834465 56.708687,85.067543 57.286255,85.653320 
	C57.676010,86.370224 57.793346,86.818306 57.821934,87.626495 
	C57.385101,89.635216 56.385891,91.207481 57.014961,93.384277 
	C57.112999,94.690681 57.016834,95.624123 56.248245,96.732246 
z"/>
<path fill="#F7F7F7" opacity="1.000000" stroke="none" 
	d="
M57.333946,86.236893 
	C56.695469,85.742310 56.401356,85.481873 55.979950,84.950897 
	C56.810547,83.264153 57.768436,81.847946 58.974518,80.222336 
	C59.860596,79.477356 60.568184,79.248528 61.697075,79.764053 
	C60.657066,82.013069 65.915466,81.320244 63.269249,83.874107 
	C62.478184,84.540428 61.924141,85.054581 61.197533,85.797058 
	C60.832809,85.999817 60.665771,85.999634 60.248177,85.998962 
	C59.310684,86.578918 58.536964,86.733414 57.333946,86.236893 
z"/>
<path fill="#EEEFEE" opacity="1.000000" stroke="none" 
	d="
M45.671982,115.777504 
	C45.994328,116.757881 45.997471,117.505669 46.003761,118.627335 
	C46.669930,119.571831 47.646961,120.043671 46.339706,121.068237 
	C45.121574,121.322357 44.239677,121.636490 43.002998,121.947220 
	C42.896267,120.145752 43.144318,118.347687 43.642975,116.257706 
	C44.316360,115.604919 44.802765,115.464638 45.671982,115.777504 
z"/>
<path fill="#FAFAF9" opacity="1.000000" stroke="none" 
	d="
M46.160236,115.755417 
	C45.525036,116.002602 45.058887,115.995102 44.243160,115.976700 
	C44.190361,114.841293 44.487144,113.716805 44.986435,112.302681 
	C45.999050,111.164124 46.887051,111.493431 48.078766,112.023697 
	C48.740940,112.516266 49.018433,112.887169 49.099869,113.663818 
	C48.109158,114.500252 47.219227,115.000496 46.160236,115.755417 
z"/>
<path fill="#EEEFEE" opacity="1.000000" stroke="none" 
	d="
M62.222389,79.895897 
	C61.309074,80.011513 60.613579,80.015472 59.570396,80.016190 
	C59.652359,79.117302 60.082008,78.221672 60.765831,77.165314 
	C61.936375,77.069115 62.708862,77.334473 62.976177,78.691887 
	C62.906773,79.327965 62.712185,79.585358 62.222389,79.895897 
z"/>
<path fill="#EEEFEE" opacity="1.000000" stroke="none" 
	d="
M48.294250,112.647675 
	C47.252132,112.688644 46.518692,112.382446 45.487103,112.044647 
	C45.281952,111.468430 45.374958,110.923820 45.659332,110.175873 
	C46.397545,109.426361 46.944389,108.880188 47.739086,108.170273 
	C49.278473,109.282043 49.208687,110.752823 48.294250,112.647675 
z"/>
<path fill="#FEFEFE" opacity="1.000000" stroke="none" 
	d="
M45.996765,121.385056 
	C46.824078,120.569031 46.466999,120.006256 46.086971,119.225342 
	C52.994537,119.033272 52.995285,119.033272 52.999668,126.177902 
	C53.001690,129.473709 53.000141,132.769531 53.000488,136.533279 
	C52.830509,137.555618 52.660248,138.110016 52.244892,138.831299 
	C50.917702,137.916885 50.312759,138.340454 50.053368,139.648346 
	C49.800644,140.922638 49.816803,142.671646 48.026787,142.435104 
	C46.475952,142.230164 46.371635,140.274231 46.320137,139.195877 
	C46.042961,133.392517 46.068798,127.574699 45.996765,121.385056 
z"/>
<path fill="#FEFEFE" opacity="1.000000" stroke="none" 
	d="
M53.953941,151.604065 
	C53.213852,151.201477 53.206890,150.794479 53.731934,150.433746 
	C53.841938,150.358154 54.097687,150.360535 54.205425,150.438583 
	C54.721127,150.812164 54.702770,151.218689 53.953941,151.604065 
z"/>
<path fill="#FAFAF9" opacity="1.000000" stroke="none" 
	d="
M64.411057,140.002701 
	C63.934547,138.469162 63.274609,137.399536 61.341179,137.034988 
	C58.808849,134.129410 59.102631,131.161499 59.733475,127.700409 
	C60.931595,121.126930 58.198036,114.529533 59.018608,107.867142 
	C59.223007,106.207558 58.063492,103.921944 60.582035,103.171326 
	C62.518726,102.594124 63.701035,103.858765 65.238335,105.094414 
	C67.960403,107.282372 71.346115,108.663284 74.506165,110.280212 
	C76.186188,111.139832 77.585487,111.860168 75.654015,113.857216 
	C73.606140,115.974632 73.452263,119.126167 71.250519,121.366119 
	C69.310043,123.340286 69.699913,126.457283 71.226669,128.846008 
	C72.491959,130.825638 75.163811,132.044449 73.297394,135.166809 
	C71.326294,138.464294 68.831123,140.470062 64.411057,140.002701 
z"/>
<path fill="#FAFAF9" opacity="1.000000" stroke="none" 
	d="
M56.992569,86.335480 
	C57.741711,86.001511 58.493843,86.000267 59.621796,85.998749 
	C63.478741,90.481529 62.115765,93.813469 58.068455,97.292946 
	C56.183018,98.913857 56.040310,102.236458 52.835297,103.170052 
	C50.882938,103.738762 49.684479,103.881531 49.033310,101.358704 
	C51.824219,101.056854 54.008972,99.826118 55.846207,97.303429 
	C55.997486,95.928421 55.998100,94.863754 56.000038,93.399696 
	C56.791946,91.978203 57.379711,90.845352 57.946186,89.368439 
	C57.913300,88.720284 59.078876,88.702057 58.085121,88.279221 
	C57.681614,88.404541 57.506550,88.406677 57.167072,88.204041 
	C57.000290,87.555580 56.997925,87.111900 56.992569,86.335480 
z"/>
<path fill="#F0F0EF" opacity="1.000000" stroke="none" 
	d="
M109.964783,77.979034 
	C112.737122,74.398750 117.215355,75.602135 121.439384,74.477402 
	C121.437286,80.202789 116.328751,81.821060 109.964783,77.979034 
z"/>
<path fill="#FEFEFE" opacity="1.000000" stroke="none" 
	d="
M48.207256,113.103271 
	C47.988293,111.609108 47.991016,110.223373 47.990334,108.422089 
	C49.374268,107.313919 50.955090,106.601112 51.639458,108.647873 
	C52.334671,110.727081 52.559021,112.950951 49.369591,113.953812 
	C48.896278,113.674133 48.706230,113.411369 48.207256,113.103271 
z"/>
<path fill="#EEEFEE" opacity="1.000000" stroke="none" 
	d="
M61.321144,85.959747 
	C61.080246,85.094643 61.318630,84.301819 62.685143,84.041862 
	C62.928028,84.907036 62.693428,85.703133 61.321144,85.959747 
z"/>
<path fill="#F0F0EF" opacity="1.000000" stroke="none" 
	d="
M169.118011,75.729630 
	C169.218567,75.251213 169.359695,75.000214 169.500809,74.749222 
	C169.641541,74.999954 169.905884,75.256645 169.894150,75.500046 
	C169.876343,75.870033 169.868134,76.568138 169.118011,75.729630 
z"/>
<path fill="#F7F7F7" opacity="1.000000" stroke="none" 
	d="
M105.533890,78.550507 
	C105.477921,78.583900 105.589859,78.517120 105.533890,78.550507 
z"/>
<path fill="#F7F7F7" opacity="1.000000" stroke="none" 
	d="
M73.606064,162.329758 
	C73.718300,162.098053 73.928024,161.665817 74.052467,161.689117 
	C74.474472,161.768127 74.461182,162.018372 73.867279,162.336014 
	C73.680275,162.454880 73.664459,162.337997 73.606064,162.329758 
z"/>
<path fill="#F7F7F7" opacity="1.000000" stroke="none" 
	d="
M72.551582,147.466309 
	C72.585732,147.523148 72.517433,147.409454 72.551582,147.466309 
z"/>
<path fill="#2E2E2E" opacity="1.000000" stroke="none" 
	d="
M78.818916,61.408611 
	C79.506516,58.365261 82.886681,59.786041 84.104103,57.316544 
	C84.709267,57.000156 85.221107,57.036438 86.107574,57.161743 
	C85.073326,62.353706 83.127052,63.517632 78.818916,61.408611 
z"/>
<path fill="#FCFCFC" opacity="1.000000" stroke="none" 
	d="
M90.466461,73.449249 
	C90.521454,73.416267 90.411461,73.482231 90.466461,73.449249 
z"/>
<path fill="#080708" opacity="1.000000" stroke="none" 
	d="
M111.621056,58.275627 
	C111.907059,58.094654 112.266350,58.256886 112.803818,58.656727 
	C112.552773,58.802502 112.123558,58.710670 111.621056,58.275627 
z"/>
<path fill="#FAFAF9" opacity="1.000000" stroke="none" 
	d="
M70.244904,173.011139 
	C70.410713,172.901657 70.578026,172.955444 70.745338,173.009247 
	C70.579025,173.064301 70.412712,173.119354 70.244904,173.011139 
z"/>
<path fill="#F7F7F7" opacity="1.000000" stroke="none" 
	d="
M58.749172,87.830627 
	C58.924854,89.950729 59.435696,92.172073 56.367535,92.955643 
	C54.719685,91.275276 55.426022,89.875854 56.864510,88.286499 
	C57.002655,87.999268 57.500107,87.999748 57.748833,88.000031 
	C58.164543,87.887390 58.331520,87.774475 58.749172,87.830627 
z"/>
<path fill="#EEEFEE" opacity="1.000000" stroke="none" 
	d="
M58.910881,87.832916 
	C58.832809,88.000053 58.665771,88.000420 58.248146,88.000542 
	C58.272346,87.888916 58.547134,87.777527 58.910881,87.832916 
z"/>
</svg>